{
  "accessors": [
    {
      "bufferView": 2,
      "componentType": 5126,
      "count": 930,
      "max": [1.5620195865631104, 3.9458274841308594, 5.066810607910156],
      "min": [-1.2345194816589355, -1.0276665687561035, -1.2869936227798462],
      "type": "VEC3"
    },
    {
      "bufferView": 2,
      "byteOffset": 11160,
      "componentType": 5126,
      "count": 930,
      "max": [0.914597749710083, 1.0, 0.9531488418579102],
      "min": [-0.9145976901054382, -1.0, -0.9985436797142029],
      "type": "VEC3"
    },
    {
      "bufferView": 1,
      "componentType": 5126,
      "count": 930,
      "max": [0.7976829409599304, 0.9998277425765991],
      "min": [0.00017230633238796145, 0.000172314714291133],
      "type": "VEC2"
    },
    {
      "bufferView": 0,
      "componentType": 5125,
      "count": 4074,
      "type": "SCALAR"
    }
  ],
  "asset": {
    "extras": {
      "author": "AJ (https://sketchfab.com/ArneJans)",
      "license": "CC-BY-4.0 (http://creativecommons.org/licenses/by/4.0/)",
      "source": "https://sketchfab.com/3d-models/shooting-range-target-bdc995c9e3c8494fbffb7f5758a8567a",
      "title": "Shooting Range Target"
    },
    "generator": "Sketchfab-15.22.0",
    "version": "2.0"
  },
  "bufferViews": [
    {
      "buffer": 0,
      "byteLength": 16296,
      "name": "floatBufferViews",
      "target": 34963
    },
    {
      "buffer": 0,
      "byteLength": 7440,
      "byteOffset": 16296,
      "byteStride": 8,
      "name": "floatBufferViews",
      "target": 34962
    },
    {
      "buffer": 0,
      "byteLength": 22320,
      "byteOffset": 23736,
      "byteStride": 12,
      "name": "floatBufferViews",
      "target": 34962
    }
  ],
  "buffers": [
    {
      "byteLength": 46056,
      "uri": "scene.bin"
    }
  ],
  "images": [
    {
      "uri": "textures/Material.004_baseColor.png"
    }
  ],
  "materials": [
    {
      "doubleSided": true,
      "name": "Material.004",
      "pbrMetallicRoughness": {
        "baseColorTexture": {
          "index": 0
        },
        "metallicFactor": 0.0,
        "roughnessFactor": 0.8211145618000169
      }
    }
  ],
  "meshes": [
    {
      "name": "Target_Material.004_0",
      "primitives": [
        {
          "attributes": {
            "NORMAL": 1,
            "POSITION": 0,
            "TEXCOORD_0": 2
          },
          "indices": 3,
          "material": 0,
          "mode": 4
        }
      ]
    }
  ],
  "nodes": [
    {
      "children": [1],
      "matrix": [
        1.0, 0.0, 0.0, 0.0, 0.0, 2.220446049250313e-16, -1.0, 0.0, 0.0, 1.0, 2.220446049250313e-16, 0.0, 0.0, 0.0, 0.0, 1.0
      ],
      "name": "Sketchfab_model"
    },
    {
      "children": [2],
      "matrix": [
        0.009999999776482582, 0.0, 0.0, 0.0, 0.0, 0.0, 0.009999999776482582, 0.0, 0.0, -0.009999999776482582, 0.0, 0.0, 0.0,
        0.0, 0.0, 1.0
      ],
      "name": "b5a0e62a279f4d11a80919e4a1156d3d.fbx"
    },
    {
      "children": [3, 5],
      "name": "RootNode"
    },
    {
      "children": [4],
      "matrix": [
        100.0, 0.0, 0.0, 0.0, 0.0, -0.08166733985129916, -4.648343369543457, 0.0, 0.0, 99.98456223084526, -1.7566415762422025,
        0.0, 0.0, 128.00289916992188, -3.588259220123291, 1.0
      ],
      "name": "Target"
    },
    {
      "mesh": 0,
      "name": "Target_Material.004_0"
    },
    {
      "children": [6],
      "matrix": [
        99.67958453146503, -7.549475705196962, 2.6427860928026887, 0.0, 7.202835772227331, 99.08830697975256,
        11.385366780417893, 0.0, -3.4782274954897514, -11.15853076202815, 99.31458905338954, 0.0, 38.82959747314453,
        1021.6508178710938, 102.60393524169922, 1.0
      ],
      "name": "Spot"
    },
    {
      "children": [7],
      "matrix": [
        1.0, 0.0, 0.0, 0.0, 0.0, 2.220446049250313e-16, 1.0, 0.0, 0.0, -1.0, 2.220446049250313e-16, 0.0, 0.0, 0.0, 0.0, 1.0
      ],
      "name": "Object_6"
    },
    {
      "name": "Object_7"
    }
  ],
  "samplers": [
    {
      "magFilter": 9729,
      "minFilter": 9987,
      "wrapS": 10497,
      "wrapT": 10497
    }
  ],
  "scene": 0,
  "scenes": [
    {
      "name": "Sketchfab_Scene",
      "nodes": [0]
    }
  ],
  "textures": [
    {
      "sampler": 0,
      "source": 0
    }
  ]
}
