{
  "accessors": [
    {
      "bufferView": 2,
      "componentType": 5126,
      "count": 1293,
      "max": [5.844712257385254, 6.202363967895508, 5.561890602111816],
      "min": [-5.844712257385254, -6.26272439956665, -8.459281921386719],
      "type": "VEC3"
    },
    {
      "bufferView": 2,
      "byteOffset": 15516,
      "componentType": 5126,
      "count": 1293,
      "max": [0.9996929168701172, 0.9999363422393799, 0.9999992251396179],
      "min": [-0.9996929168701172, -1.0, -0.9999754428863525],
      "type": "VEC3"
    },
    {
      "bufferView": 3,
      "componentType": 5126,
      "count": 1293,
      "max": [1.0, 0.7849471569061279, 0.9945133328437805, 1.0],
      "min": [-0.9832963943481445, -0.7854527831077576, -0.9945703744888306, 1.0],
      "type": "VEC4"
    },
    {
      "bufferView": 1,
      "componentType": 5126,
      "count": 1293,
      "max": [0.9935935735702515, 0.8014113306999207],
      "min": [0.006406391505151987, 0.03447185456752777],
      "type": "VEC2"
    },
    {
      "bufferView": 0,
      "componentType": 5125,
      "count": 7332,
      "type": "SCALAR"
    }
  ],
  "asset": {
    "extras": {
      "author": "cal.cheung (https://sketchfab.com/calcheung)",
      "license": "CC-BY-4.0 (http://creativecommons.org/licenses/by/4.0/)",
      "source": "https://sketchfab.com/3d-models/rubber-duck-d035f4a8bd20432db42492541c9a2352",
      "title": "Rubber Duck"
    },
    "generator": "Sketchfab-14.37.0",
    "version": "2.0"
  },
  "bufferViews": [
    {
      "buffer": 0,
      "byteLength": 29328,
      "name": "floatBufferViews",
      "target": 34963
    },
    {
      "buffer": 0,
      "byteLength": 10344,
      "byteOffset": 29328,
      "byteStride": 8,
      "name": "floatBufferViews",
      "target": 34962
    },
    {
      "buffer": 0,
      "byteLength": 31032,
      "byteOffset": 39672,
      "byteStride": 12,
      "name": "floatBufferViews",
      "target": 34962
    },
    {
      "buffer": 0,
      "byteLength": 20688,
      "byteOffset": 70704,
      "byteStride": 16,
      "name": "floatBufferViews",
      "target": 34962
    }
  ],
  "buffers": [
    {
      "byteLength": 91392,
      "uri": "scene.bin"
    }
  ],
  "images": [
    {
      "uri": "textures/duckMAT_baseColor.png"
    },
    {
      "uri": "textures/duckMAT_metallicRoughness.png"
    },
    {
      "uri": "textures/duckMAT_normal.png"
    }
  ],
  "materials": [
    {
      "doubleSided": true,
      "name": "duckMAT",
      "normalTexture": {
        "index": 2
      },
      "pbrMetallicRoughness": {
        "baseColorTexture": {
          "index": 0
        },
        "metallicFactor": 0.0,
        "metallicRoughnessTexture": {
          "index": 1
        },
        "roughnessFactor": 0.9
      }
    }
  ],
  "meshes": [
    {
      "name": "ducky_duckMAT_0",
      "primitives": [
        {
          "attributes": {
            "NORMAL": 1,
            "POSITION": 0,
            "TANGENT": 2,
            "TEXCOORD_0": 3
          },
          "indices": 4,
          "material": 0,
          "mode": 4
        }
      ]
    }
  ],
  "nodes": [
    {
      "children": [1],
      "matrix": [
        1.0, 0.0, 0.0, 0.0, 0.0, 2.220446049250313e-16, -1.0, 0.0, 0.0, 1.0, 2.220446049250313e-16, 0.0, 0.0, 0.0, 0.0, 1.0
      ],
      "name": "Sketchfab_model"
    },
    {
      "children": [2],
      "matrix": [
        0.009999999776482582, 0.0, 0.0, 0.0, 0.0, 0.0, 0.009999999776482582, 0.0, 0.0, -0.009999999776482582, 0.0, 0.0, 0.0,
        0.0, 0.0, 1.0
      ],
      "name": "c1f4b46aa82d4c2b91eac99f58c5cacb.fbx"
    },
    {
      "children": [3],
      "name": "RootNode"
    },
    {
      "children": [4],
      "matrix": [
        1.0, 0.0, 0.0, 0.0, 0.0, 0.9999999999999867, 1.6292067073209113e-7, 0.0, 0.0, -1.6292067073209113e-7,
        0.9999999999999867, 0.0, 0.0, 0.0, 0.0, 1.0
      ],
      "name": "ducky"
    },
    {
      "mesh": 0,
      "name": "ducky_duckMAT_0"
    }
  ],
  "samplers": [
    {
      "magFilter": 9729,
      "minFilter": 9987,
      "wrapS": 10497,
      "wrapT": 10497
    }
  ],
  "scene": 0,
  "scenes": [
    {
      "name": "Sketchfab_Scene",
      "nodes": [0]
    }
  ],
  "textures": [
    {
      "sampler": 0,
      "source": 0
    },
    {
      "sampler": 0,
      "source": 1
    },
    {
      "sampler": 0,
      "source": 2
    }
  ]
}
